<svg id="visual" viewBox="0 0 960 540" width="960" height="540" xmlns="http://www.w3.org/2000/svg" xmlns:xlink="http://www.w3.org/1999/xlink" version="1.1"><rect x="0" y="0" width="960" height="540" fill="#001220"></rect><path d="M0 338L22.8 338.5C45.7 339 91.3 340 137 347.2C182.7 354.3 228.3 367.7 274 366.8C319.7 366 365.3 351 411.2 348.3C457 345.7 503 355.3 548.8 362.2C594.7 369 640.3 373 686 369.8C731.7 366.7 777.3 356.3 823 346.8C868.7 337.3 914.3 328.7 937.2 324.3L960 320L960 541L937.2 541C914.3 541 868.7 541 823 541C777.3 541 731.7 541 686 541C640.3 541 594.7 541 548.8 541C503 541 457 541 411.2 541C365.3 541 319.7 541 274 541C228.3 541 182.7 541 137 541C91.3 541 45.7 541 22.8 541L0 541Z" fill="#d5da94"></path><path d="M0 382L22.8 386.3C45.7 390.7 91.3 399.3 137 395.8C182.7 392.3 228.3 376.7 274 373C319.7 369.3 365.3 377.7 411.2 386.2C457 394.7 503 403.3 548.8 408.2C594.7 413 640.3 414 686 414.7C731.7 415.3 777.3 415.7 823 409.5C868.7 403.3 914.3 390.7 937.2 384.3L960 378L960 541L937.2 541C914.3 541 868.7 541 823 541C777.3 541 731.7 541 686 541C640.3 541 594.7 541 548.8 541C503 541 457 541 411.2 541C365.3 541 319.7 541 274 541C228.3 541 182.7 541 137 541C91.3 541 45.7 541 22.8 541L0 541Z" fill="#94b782"></path><path d="M0 456L22.8 448C45.7 440 91.3 424 137 420.5C182.7 417 228.3 426 274 426.8C319.7 427.7 365.3 420.3 411.2 420.3C457 420.3 503 427.7 548.8 431.7C594.7 435.7 640.3 436.3 686 433.8C731.7 431.3 777.3 425.7 823 427.2C868.7 428.7 914.3 437.3 937.2 441.7L960 446L960 541L937.2 541C914.3 541 868.7 541 823 541C777.3 541 731.7 541 686 541C640.3 541 594.7 541 548.8 541C503 541 457 541 411.2 541C365.3 541 319.7 541 274 541C228.3 541 182.7 541 137 541C91.3 541 45.7 541 22.8 541L0 541Z" fill="#5d9272"></path><path d="M0 442L22.8 441.3C45.7 440.7 91.3 439.3 137 444C182.7 448.7 228.3 459.3 274 463.5C319.7 467.7 365.3 465.3 411.2 462.3C457 459.3 503 455.7 548.8 451.2C594.7 446.7 640.3 441.3 686 442.2C731.7 443 777.3 450 823 455.8C868.7 461.7 914.3 466.3 937.2 468.7L960 471L960 541L937.2 541C914.3 541 868.7 541 823 541C777.3 541 731.7 541 686 541C640.3 541 594.7 541 548.8 541C503 541 457 541 411.2 541C365.3 541 319.7 541 274 541C228.3 541 182.7 541 137 541C91.3 541 45.7 541 22.8 541L0 541Z" fill="#306c60"></path><path d="M0 510L22.8 509.3C45.7 508.7 91.3 507.3 137 501.7C182.7 496 228.3 486 274 481C319.7 476 365.3 476 411.2 478.2C457 480.3 503 484.7 548.8 487.3C594.7 490 640.3 491 686 488.3C731.7 485.7 777.3 479.3 823 480.8C868.7 482.3 914.3 491.7 937.2 496.3L960 501L960 541L937.2 541C914.3 541 868.7 541 823 541C777.3 541 731.7 541 686 541C640.3 541 594.7 541 548.8 541C503 541 457 541 411.2 541C365.3 541 319.7 541 274 541C228.3 541 182.7 541 137 541C91.3 541 45.7 541 22.8 541L0 541Z" fill="#0e4749"></path></svg>